<svg xmlns="http://www.w3.org/2000/svg" xml:space="preserve" style="enable-background:new 0 0 160 30" viewBox="0 0 160 30"><path d="M39 14.7c1-2.3 2-3.3 3-3.3s1.7.7 1.7 2.2C43.7 16 42 20 39 20c-.6 0-1.2-.4-1.3-1.1L36.3 20h-.2l.3-.9 2.8-9.9.1-.4c0-.4-.3-.6-1.1-.6l.1-.3c1.2 0 2-.2 2.8-.7L39 14.7zm-1.1 4.2c.3.7.6.9 1.1.9 1.8 0 3.3-4 3.3-6.4 0-.9-.3-1.4-.8-1.4-.9 0-2.2 2.2-3.2 4.9l-.4 2zm10.9 0c1.1-1.5 2-3.4 2.4-5.2-.5-.2-1.2-.7-1.2-1.4 0-.5.4-.8.8-.8.6 0 .8.4.8 1.3 0 2.2-1.6 5.2-3.1 7.1-.5.6-1.6 1.9-3.2 2.7-.6.3-1.1.4-1.4.4-.4 0-.8-.2-.8-.7 0-.5.4-.7.9-.7s.9.3 1.3.6c.7-.4 1.5-1 2.4-1.9l-1.2-7.2c-.1-.7-.2-.9-.5-.9-.2 0-.5.3-.9 1.5l-.2.6h-.3l.4-1.2c.4-1.3 1.1-1.6 1.8-1.6s1 .3 1.1 1.5l.9 5.9zm9.7-10.3h7.8l-.7 2-.3 1.3H65l.2-1.6c0-1-.4-1.4-1.8-1.4h-.9c-1.1 0-1.3.2-1.6 1.3l-1.1 3.9H61c1.4 0 1.7-1.3 2-2.1h.4l-.7 2.3-.5 2.3h-.4l.1-1.1c0-.6-.2-1-1.1-1h-1.2l-1 3.7-.1.7c0 .5.4.6 1.4.7l-.1.3h-4.4l.1-.3c1.1 0 1.3-.2 1.6-1.4l2.1-7.9.1-.8c0-.5-.3-.6-1.1-.6l.3-.3zm14.9 8.7-.4 1.2c-.5 1.3-1.3 1.6-1.9 1.6-.3 0-.7-.1-.8-.4l-.1-.5.2-1.3.5-2c-1.3 3.1-2.4 4.2-3.7 4.2-1 0-1.4-.5-1.4-1.2l.2-1.2 1.5-4.7.1-.6c0-.3-.1-.4-.4-.4-.4 0-.8.4-1.2 1.6l-.2.6h-.3l.4-1.2c.5-1.3 1.3-1.6 1.9-1.6.9 0 1.1.4 1.1 1l-.3 1.2-1.5 4.6a3 3 0 0 0-.2.8c0 .4.2.5.5.5 1.2 0 3-2.9 4.1-7l.2-1 1.5-.2-2 7.1-.1.6c0 .2.1.4.3.4.5 0 .8-.4 1.2-1.6l.2-.6h.6zm3.8-1.6c1.2-3.1 2.1-4.3 3.3-4.3.6 0 .9.4.9.9 0 .6-.5 1.2-1.1 1.2-.4 0-.6-.2-.6-.6 0-.5.3-.8.7-1l-.2-.1c-1.2 0-2.6 2.8-3.8 6.7l-.3 1.3h-1.4l1.9-6.9.1-.6c0-.3-.1-.4-.3-.4-.5 0-.8.5-1.2 1.6l-.2.8h-.3l.4-1.2c.5-1.3 1.3-1.6 1.9-1.6.7 0 .9.4.9.9l-.2 1.3-.5 2zm11.9 2.8c-.5 1.3-1.3 1.6-1.9 1.6-.5 0-.8-.2-1-.5l-.1-.5.3-1.2 1.5-4.6.2-.8c0-.3-.1-.6-.5-.6-1.3 0-3.1 2.9-4.2 6.8l-.4 1.2h-1.4l1.9-6.9.1-.6c0-.2-.1-.4-.4-.4-.5 0-.8.4-1.2 1.6l-.2.6h-.3l.4-1.2c.5-1.3 1.2-1.6 1.9-1.6s.9.4.9.9l-.2 1.3-.5 2.3c1.4-3.3 2.6-4.4 4-4.4 1 0 1.3.5 1.3 1.2l-.2 1.2-1.6 4.7-.1.6c0 .2.1.4.4.4.4 0 .8-.4 1.2-1.6l.2-.6h.3l-.4 1.1zm3.7-5.5.1-.6c0-.3-.1-.4-.3-.4-.5 0-.9.5-1.3 1.6l-.2.6h-.3l.4-1.2c.5-1.3 1.3-1.6 2-1.6.8 0 1.1.4 1.1 1l-.3 1.2-1.7 4.9-.1.6c0 .3.1.4.4.4.4 0 .8-.4 1.2-1.6l.2-.6h.3l-.4 1.2c-.4 1.2-1.2 1.6-2 1.6s-1.1-.4-1.1-1l.3-1.3 1.7-4.8zm1.7-5.3c.5 0 .8.4.8.8 0 .6-.6 1.2-1.2 1.2a.8.8 0 0 1-.8-.8c0-.6.6-1.2 1.2-1.2zm2.6 10.8-.1.4c0 .4.3.6.7.6.5 0 .9-.3 1.4-1.6l.2-.6h.3l-.3 1c-.5 1.4-1.2 1.8-2.2 1.8-1 0-1.4-.5-1.4-1.3l.1-.9 1.7-5.9h-1.4l.1-.3h1.5l.7-2.4 1.4-.2-.8 2.6h2.1v.3h-2.2l-1.8 6.5zm11.7-1.2-.4 1.2c-.5 1.3-1.3 1.6-1.9 1.6-.3 0-.7-.1-.8-.4l-.1-.5.2-1.3.5-2c-1.3 3.1-2.4 4.2-3.7 4.2-1 0-1.4-.5-1.4-1.2l.2-1.2L103 13l.1-.6c0-.3-.1-.4-.4-.4-.4 0-.8.4-1.2 1.6l-.2.6h-.3l.4-1.2c.5-1.3 1.3-1.6 1.9-1.6.9 0 1.1.4 1.1 1l-.3 1.2-1.5 4.6a3 3 0 0 0-.2.8c0 .4.2.5.5.5 1.2 0 3-2.9 4.1-7l.2-1 1.5-.2-2 7.1-.1.6c0 .2.1.4.3.4.5 0 .8-.4 1.2-1.6l.2-.6h.5zm3.8-1.6c1.2-3.1 2.1-4.3 3.3-4.3.6 0 .9.4.9.9 0 .6-.5 1.2-1.1 1.2-.4 0-.6-.2-.6-.6 0-.5.3-.8.7-1l-.2-.1c-1.2 0-2.6 2.8-3.8 6.7l-.3 1.3h-1.4L112 13l.1-.6c0-.3-.1-.4-.3-.4-.5 0-.8.5-1.2 1.6l-.2.6h-.3l.4-1.2c.5-1.3 1.3-1.6 1.9-1.6.7 0 .9.4.9.9l-.2 1.3-.5 2.1zm9 2.3c-.6 1.1-1.9 2.1-3.2 2.1-1.3 0-2.1-.8-2.1-2.3 0-2.3 2.2-6.4 5.3-6.4.7 0 1.2.4 1.2 1.1 0 2-2.9 3.2-4.8 3.9l-.2 1.5c0 1.1.4 1.5 1.1 1.5.8 0 1.6-.4 2.5-1.6l.2.2zm-3.6-1.9 2.2-1a3 3 0 0 0 1.2-2.6c0-.6-.1-.7-.3-.7-1 0-2.5 2-3.1 4.3zm2.4-5.9 2.4-3c.2-.3.5-.4.7-.4l.4.1.1.3c0 .2-.1.4-.4.7l-3 2.4-.2-.1zM5 14.5h25v1H5zm125 0h25v1h-25z"/></svg>